<svg data-v-0dd9719b="" version="1.0" xmlns="http://www.w3.org/2000/svg" xmlns:xlink="http://www.w3.org/1999/xlink" width="100%" height="100%" viewBox="0 0 340.000000 250.000000" preserveAspectRatio="xMidYMid meet" color-interpolation-filters="sRGB" style="margin: auto;"> <rect data-v-0dd9719b="" x="0" y="0" width="100%" height="100%" fill="#fff" fill-opacity="1" class="background"></rect> <rect data-v-0dd9719b="" x="0" y="0" width="100%" height="100%" fill="url(#watermark)" fill-opacity="1" class="watermarklayer"></rect> <g data-v-0dd9719b="" fill="#333333" class="icon-text-wrapper icon-svg-group iconsvg" transform="translate(63.5,94.94319152832031)"><g class="iconsvg-imagesvg" transform="translate(0,0)"><g><rect fill="#333333" fill-opacity="0" stroke-width="2" x="0" y="0" width="60" height="60.11361473184318" class="image-rect"></rect> <svg x="0" y="0" width="60" height="60.11361473184318" filtersec="colorsb6707916434" class="image-svg-svg primary" style="overflow: visible;"><svg xmlns="http://www.w3.org/2000/svg" viewBox="-0.0016283988952636719 -0.021178483963012695 384.0625915527344 384.7880554199219"><g><g><path d="M87.69 353.33c1.34-1.29 2.51-.81 3.61-.59 26.07 5.22 52 3.29 77.91-1.31a62.35 62.35 0 0 1 14.39-1.15c28.8 1.58 56.17-4.18 81.46-17.88 45.56-24.69 73.52-62.63 82.51-113.88 6.84-39 .1-75.85-21.52-109.06-16.08-24.7-39.8-36.92-69.6-37.27-25.77-.3-49.44 6-70.71 20.71-17.74 12.21-29.63 28.91-37.74 48.67.51.11 1 .28 1 .2 10.63-18.31 26.38-31.08 44.61-41.15 18.71-10.34 38.84-16.53 59.75-20.51 4.52-.86 5.49.91 5.39 5-.63 23.85-6.64 45.78-22.81 64-9.57 10.79-21.58 18.11-34.71 23.89s-26.74 9.24-40 14.14c-21.08 7.78-34.88 22.58-42.48 43.48-.48 1.32-.24 3.44-2.14 3.49-1.63 0-1.67-1.9-1.94-3.1-8.19-37.24-9.82-74.35 3.9-110.73 14.3-37.88 42.59-60.36 80.71-71.28 28.89-8.27 58.45-10.84 88.05-5.67 26.18 4.57 48 17.09 63.07 40.11 11.48 17.58 20.9 36.09 26.26 56.36 13.55 51.22 8.95 100.75-17.58 146.92-32.42 56.42-81.5 89.08-146.32 96.7-43.47 5.11-84.11-4.42-121.69-26.89a18.17 18.17 0 0 1-2.41-1.76 7.36 7.36 0 0 1-.97-1.44z" fill="#e89729"></path><path d="M295.76 32.28A216.28 216.28 0 0 0 271.07 29c-19.29-1.4-38.23 1-57.12 4.12a67.27 67.27 0 0 1-14.38 1.16 154.89 154.89 0 0 0-65.14 10.4 157.72 157.72 0 0 0-60.26 41.76C53 110 39.86 137.52 35.31 168.86c-5.39 37.09.88 72.33 20.61 104.23 15.56 25.16 39 38.26 69 39.38a121.58 121.58 0 0 0 60.86-13.15c24.22-12.32 40.3-32.12 50.33-57.09-1.14-.84-1.38.06-1.64.51-12.14 20.81-30.53 34.51-51.68 44.87a195.19 195.19 0 0 1-51.7 16.66c-6.38 1.14-6.88.82-6.48-5.46 1.66-26 8.41-49.93 28.32-68.36 9.8-9.07 21.29-15.35 33.58-20.35s25-8.36 37.28-12.94c20.39-7.58 33.31-22.54 41.11-42.41.58-1.47.51-3.35 2.67-4.33 2.76 6.53 3.59 13.45 4.57 20.27 4.29 29.83 4.4 59.45-5.29 88.45-12 36-36.47 59.77-71.69 72.83-21.79 8.08-44.49 10.91-67.64 11.65-18.26.58-35.83-1.66-52.74-8.69-19.1-7.93-33.68-20.84-44.58-38.46-17.9-28.94-28.32-60-29.95-94.16q-3.66-76.72 45.91-135.16C75.75 32.32 113.35 10.72 158.32 3c47.78-8.19 92.81.26 134.45 25.49a18.12 18.12 0 0 1 2.37 1.81c.2.19.2.6.62 1.98z" fill="#7eb042"></path></g></g></svg></svg> <!----></g></g> <g transform="translate(67,4.550559997558594)"><g data-gra="path-name" fill-rule="" class="tp-name iconsvg-namesvg" transform="translate(0,0)"><g transform="scale(1)"><g><path d="M14.16-29.6L8.63-20 17.98-20 17.98-25.98 22.02-25.98 22.02-20 36-20 36-16.8 22.02-16.8 22.02-4.59Q22.02-2.05 20.73 0L20.73 0 16.66 0Q18.02-2.02 18.02-4.59L18.02-4.59 18.02-16.8 4-16.8 4-20 9.53-29.6 4-29.6 4-32.8 11.41-32.8 13.25-36 17.88-36 16-32.8 36-32.8 36-29.6 14.16-29.6ZM5.36-14.78L9.36-14.78 9.36-6.57Q9.36-4.07 8.1-1.98L8.1-1.98 4-1.98Q5.36-4.03 5.36-6.57L5.36-6.57 5.36-14.78ZM30.64-6.57L30.64-14.78 34.64-14.78 34.64-6.57Q34.64-4.03 36-1.98L36-1.98 31.9-1.98Q30.64-4.07 30.64-6.57L30.64-6.57ZM74 0L70.8 0Q68.82 0 67.41-1.41 66-2.82 66-4.8L66-4.8 66-13.98 50-13.98 46.24 0.03 42 0.03 45.76-13.98 42-13.98 42-17.18 74-17.18 74-13.98 70-13.98 70-3.2 74-3.2 74 0ZM59.74-28.8L60.89-26.78 70-26.78 74-26.78 74-23.62 74-21.6 70-21.6 70-23.62 46-23.62 46-21.6 42-21.6 42-23.62 42-26.78 46-26.78 56.26-26.78 55.11-28.8 59.74-28.8ZM67.98-33.98L67.98-36 72.02-36 72.02-33.98 74-33.98 74-30.82 72.02-30.82 72.02-28.8 67.98-28.8 67.98-30.82 48.02-30.82 48.02-28.8 43.98-28.8 43.98-30.82 42-30.82 42-33.98 43.98-33.98 43.98-36 48.02-36 48.02-33.98 67.98-33.98ZM48.02-18.4L48.02-21.6 67.98-21.6 67.98-18.4 48.02-18.4ZM81.22-32.8L81.22-36 85.18-36 106.82-36 110.78-36 110.78-32.8 110.78-27.2 110.78-24 106.82-24 85.18-24 81.22-24 81.22-27.2 81.22-32.8ZM106.82-7.58L98.19-7.58 98.19-4.59Q98.19-2.02 96.9 0L96.9 0 92.83 0Q94.19-2.05 94.19-4.59L94.19-4.59 94.19-7.58 86.02-7.58Q84.03-7.58 82.63-9.01 81.22-10.43 81.22-12.38L81.22-12.38 81.22-13.98 81.22-17.18 85.18-17.18 106.82-17.18 110.78-17.18 110.78-13.98 110.78-7.58 109.18-7.58 106.82-7.58ZM97.95-22.82L98.64-21.6 112-21.6 112-18.4 80-18.4 80-21.6 94.05-21.6 93.36-22.82 97.95-22.82ZM105.98-4.59L105.98-6.4 110.02-6.4 110.02-4.59Q110.02-2.05 111.37 0L111.37 0 107.27 0Q105.98-2.02 105.98-4.59L105.98-4.59ZM81.98-6.4L86.02-6.4 86.02-4.59Q86.02-2.02 84.73 0L84.73 0 80.63 0Q81.98-2.05 81.98-4.59L81.98-4.59 81.98-6.4ZM106.82-27.2L106.82-32.8 85.18-32.8 85.18-31.58 104.8-31.58 102.96-28.38 85.18-28.38 85.18-27.2 106.82-27.2ZM85.18-10.78L106.82-10.78 106.82-13.98 85.18-13.98 85.18-10.78ZM129.2-23.23L129.2-26.43 134.56-26.43 136.12-28.45 129.17-28.45 129.17-31.65 137.55-31.65 137.55-36.03 141.55-36.03 141.55-31.65 149.97-31.65 149.97-28.45 141.55-28.45 140.78-28.45 139.25-26.43 149.97-26.43 149.97-23.23 136.71-23.23 133.9-19.65 129.2-19.65 132.05-23.23 129.2-23.23ZM118-0.03L118-36.03 121.97-36.03 124.02-36.03 127.98-36.03 127.98-32.83 127.98-4.63Q127.98-2.05 126.73-0.03L126.73-0.03 122.63-0.03Q124.02-2.12 124.02-4.63L124.02-4.63 124.02-11.65 121.97-11.65 121.97-0.03 118-0.03ZM124.02-32.83L121.97-32.83 121.97-25.25 124.02-25.25 124.02-32.83ZM124.02-22.05L121.97-22.05 121.97-14.85 124.02-14.85 124.02-22.05ZM150-12.17L150-8.97 150-4.59Q150-3.51 149.69-2.28 149.37-1.04 148.71 0L148.71 0 144.64 0Q146-2.05 146-4.59L146-4.59 146-8.97 134-8.97Q132.02-8.97 130.61-10.38 129.2-11.79 129.2-13.77L129.2-13.77 129.2-15.23 129.2-18.43 133.2-18.43 144.82-18.43 148.78-18.43 148.78-15.23 148.78-12.17 150-12.17ZM144.82-15.23L133.2-15.23 133.2-12.17 144.82-12.17 144.82-15.23ZM134.31-36.03L136.71-32.83 131.63-32.83 129.23-36.03 134.31-36.03ZM147.57-32.83L142.49-32.83 144.89-36.03 149.97-36.03 147.57-32.83ZM145.3-19.65L143.43-21.98 148.12-21.98 150-19.65 145.3-19.65ZM129.2-2.05L129.2-5.25 144.57-7.37 144.57-4.17 129.2-2.05Z" transform="translate(-4, 36.029998779296875)"></path></g> <!----> <!----> <!----> <!----> <!----> <!----> <!----></g></g> <g data-gra="path-slogan" fill-rule="" class="tp-slogan iconsvg-slogansvg" fill="#7eb042" transform="translate(6.790000915527344,43.05999755859375)"><rect width="0"></rect> <rect x="135.4199981689453" width="0.5800018310546875"></rect> <g transform="translate(0,0)"><g transform="scale(1)"><path d="M4.41 0L0.94 0L0.94-8.58L4.45-8.58Q7.92-8.39 8.06-4.41L8.06-4.41Q7.88-0.09 4.41 0L4.41 0ZM4.27-7.64L2.11-7.64L2.11-0.98L4.36-0.98Q6.80-1.13 6.89-4.31L6.89-4.31Q6.84-7.55 4.27-7.64L4.27-7.64ZM16.31-4.27L16.31-4.27Q16.13-7.64 13.31-7.83L13.31-7.83Q10.45-7.69 10.31-4.27L10.31-4.27Q10.45-0.94 13.31-0.80L13.31-0.80Q16.13-0.98 16.31-4.27ZM17.48-4.27L17.48-4.27Q17.20 0 13.31 0.14L13.31 0.14Q9.38 0 9.09-4.27L9.09-4.27Q9.33-8.72 13.31-8.81L13.31-8.81Q17.20-8.67 17.48-4.27ZM20.25-8.58L24.56-1.64L24.56-8.58L25.69-8.58L25.69 0L24.38 0L20.02-6.94L19.97-6.94L19.97 0L18.84 0L18.84-8.58L20.25-8.58ZM33.89-3.61L31.27-3.61L31.27-4.59L35.02-4.59L35.02 0L34.27 0L33.98-1.08Q33 0.09 31.17 0.14L31.17 0.14Q29.44 0.14 28.50-0.75L28.50-0.75Q27.09-2.06 27.14-4.36L27.14-4.36Q27.47-8.63 31.22-8.81L31.22-8.81Q34.41-8.63 34.88-6L34.88-6L33.75-6Q33.28-7.78 31.17-7.83L31.17-7.83Q28.50-7.64 28.36-4.31L28.36-4.31Q28.36-0.75 31.22-0.75L31.22-0.75Q32.25-0.75 33-1.31L33-1.31Q33.94-2.06 33.89-3.61L33.89-3.61ZM43.22-3.61L40.59-3.61L40.59-4.59L44.34-4.59L44.34 0L43.59 0L43.31-1.08Q42.33 0.09 40.50 0.14L40.50 0.14Q38.77 0.14 37.83-0.75L37.83-0.75Q36.42-2.06 36.47-4.36L36.47-4.36Q36.80-8.63 40.55-8.81L40.55-8.81Q43.73-8.63 44.20-6L44.20-6L43.08-6Q42.61-7.78 40.50-7.83L40.50-7.83Q37.83-7.64 37.69-4.31L37.69-4.31Q37.69-0.75 40.55-0.75L40.55-0.75Q41.58-0.75 42.33-1.31L42.33-1.31Q43.27-2.06 43.22-3.61L43.22-3.61ZM51.80-3.19L51.80-8.58L52.97-8.58L52.97-3.05Q52.83 0.05 49.45 0.14L49.45 0.14Q46.31 0.05 46.17-2.86L46.17-2.86L46.17-8.58L47.34-8.58L47.34-3.19Q47.39-0.84 49.50-0.80L49.50-0.80Q51.80-0.84 51.80-3.19L51.80-3.19ZM60.42 0L59.58-2.48L56.11-2.48L55.22 0L54.05 0L57.28-8.58L58.59-8.58L61.69 0L60.42 0ZM57.84-7.31L56.48-3.52L59.16-3.52L57.89-7.31L57.84-7.31ZM64.13-8.58L68.44-1.64L68.44-8.58L69.56-8.58L69.56 0L68.25 0L63.89-6.94L63.84-6.94L63.84 0L62.72 0L62.72-8.58L64.13-8.58ZM73.97-1.92L73.97-2.77L75.05-2.77L75.05-2.16Q75.05-0.75 76.36-0.75L76.36-0.75Q77.72-0.75 77.72-2.25L77.72-2.25L77.72-8.58L78.89-8.58L78.89-2.30Q78.84 0.09 76.41 0.14L76.41 0.14Q74.11 0.09 73.97-1.92L73.97-1.92ZM80.86-8.58L82.03-8.58L82.03 0L80.86 0L80.86-8.58ZM85.41-8.58L89.72-1.64L89.72-8.58L90.84-8.58L90.84 0L89.53 0L85.17-6.94L85.13-6.94L85.13 0L84 0L84-8.58L85.41-8.58ZM99.05-3.61L96.42-3.61L96.42-4.59L100.17-4.59L100.17 0L99.42 0L99.14-1.08Q98.16 0.09 96.33 0.14L96.33 0.14Q94.59 0.14 93.66-0.75L93.66-0.75Q92.25-2.06 92.30-4.36L92.30-4.36Q92.63-8.63 96.38-8.81L96.38-8.81Q99.56-8.63 100.03-6L100.03-6L98.91-6Q98.44-7.78 96.33-7.83L96.33-7.83Q93.66-7.64 93.52-4.31L93.52-4.31Q93.52-0.75 96.38-0.75L96.38-0.75Q97.41-0.75 98.16-1.31L98.16-1.31Q99.09-2.06 99.05-3.61L99.05-3.61ZM104.16-7.59L101.25-7.59L101.25-8.58L108.19-8.58L108.19-7.59L105.28-7.59L105.28 0L104.16 0L104.16-7.59ZM110.53-1.03L115.69-1.03L115.69 0L109.36 0L109.36-8.58L115.59-8.58L115.59-7.59L110.53-7.59L110.53-4.92L115.22-4.92L115.22-3.89L110.53-3.89L110.53-1.03ZM118.59-8.58L122.91-1.64L122.91-8.58L124.03-8.58L124.03 0L122.72 0L118.36-6.94L118.31-6.94L118.31 0L117.19 0L117.19-8.58L118.59-8.58ZM132.23-3.61L129.61-3.61L129.61-4.59L133.36-4.59L133.36 0L132.61 0L132.33-1.08Q131.34 0.09 129.52 0.14L129.52 0.14Q127.78 0.14 126.84-0.75L126.84-0.75Q125.44-2.06 125.48-4.36L125.48-4.36Q125.81-8.63 129.56-8.81L129.56-8.81Q132.75-8.63 133.22-6L133.22-6L132.09-6Q131.63-7.78 129.52-7.83L129.52-7.83Q126.84-7.64 126.70-4.31L126.70-4.31Q126.70-0.75 129.56-0.75L129.56-0.75Q130.59-0.75 131.34-1.31L131.34-1.31Q132.28-2.06 132.23-3.61L132.23-3.61Z" transform="translate(-0.9375, 8.8125)"></path></g></g></g></g></g><defs v-gra="od"></defs></svg>